<?xml version="1.0" encoding="utf-8"?>
<!-- Generator: Adobe Illustrator 16.0.0, SVG Export Plug-In . SVG Version: 6.00 Build 0)  -->
<!DOCTYPE svg PUBLIC "-//W3C//DTD SVG 1.1//EN" "http://www.w3.org/Graphics/SVG/1.1/DTD/svg11.dtd">
<svg version="1.1" id="Calque_1" xmlns="http://www.w3.org/2000/svg" xmlns:xlink="http://www.w3.org/1999/xlink" x="0px" y="0px"
	 width="39.109px" height="35.27px" viewBox="0 0 39.109 35.27" enable-background="new 0 0 39.109 35.27" xml:space="preserve">
<g>
	<path fill="#FFFFFF" d="M19.561,28.838c-1.926-0.002-3.853-0.036-5.777,0.009c-1.858,0.045-2.844-0.997-2.438-2.624
		c0.376-1.511,1.136-3.209,2.274-4.19c2.621-2.26,8.87-2.235,11.645-0.108c0.993,0.763,1.897,1.971,2.266,3.156
		c0.81,2.595-0.195,3.725-2.946,3.756C22.907,28.857,21.235,28.84,19.561,28.838z"/>
	<path fill="#FFFFFF" d="M13.737,19.44c-1.393,1.681-2.715,3.343-4.118,4.93c-0.333,0.378-0.929,0.711-1.418,0.73
		c-2.007,0.079-4.021,0.021-6.034,0.032c-1.647,0.012-2.33-0.958-2.132-2.41c0.141-1.032,0.482-2.179,1.112-2.979
		C3.754,16.443,11.101,16.479,13.737,19.44z"/>
	<path fill="#FFFFFF" d="M24.91,19.598c2.927-2.597,8.885-3.102,11.783-0.884c0.93,0.71,1.758,1.867,2.085,2.98
		c0.719,2.437-0.148,3.393-2.697,3.442c-0.923,0.02-1.849-0.037-2.77,0.013c-2.137,0.116-4.003,0.128-5.048-2.45
		C27.763,21.464,26.139,20.684,24.91,19.598z"/>
	<path fill="#FFFFFF" d="M14.919,13.008c0.014-2.675,1.926-4.693,4.489-4.737c2.646-0.046,4.712,2.083,4.68,4.823
		c-0.037,3.101-2.219,6.048-4.523,6.107C17.141,19.266,14.903,16.282,14.919,13.008z"/>
	<path fill="#FFFFFF" d="M27.031,10.44c-0.009-2.585,1.887-4.544,4.348-4.493c2.348,0.049,4.202,1.974,4.235,4.396
		c0.041,3.007-2.119,5.874-4.383,5.818C29.043,16.107,27.042,13.38,27.031,10.44z"/>
	<path fill="#FFFFFF" d="M3.412,10.538C3.369,7.948,5.215,5.956,7.67,5.944c2.353-0.011,4.238,1.867,4.318,4.301
		c0.096,2.952-2.04,5.909-4.281,5.928C5.504,16.19,3.462,13.51,3.412,10.538z"/>
</g>
</svg>
