<?xml version="1.0" encoding="utf-8"?>
<!-- Generator: Adobe Illustrator 16.0.0, SVG Export Plug-In . SVG Version: 6.00 Build 0)  -->
<!DOCTYPE svg PUBLIC "-//W3C//DTD SVG 1.1//EN" "http://www.w3.org/Graphics/SVG/1.1/DTD/svg11.dtd">
<svg version="1.1" xmlns="http://www.w3.org/2000/svg" xmlns:xlink="http://www.w3.org/1999/xlink" x="0px" y="0px"
	 width="226.771px" height="226.772px" viewBox="0 0 226.771 226.772" enable-background="new 0 0 226.771 226.772"
	 xml:space="preserve">
<g id="Calque_1">
	<g>
		<path fill="#93172C" d="M114.032,111.868l66.238-66.251c-17.09-16.882-40.566-27.313-66.484-27.313
			c-25.792,0-49.164,10.334-66.233,27.073L114.032,111.868z"/>
		<path fill="#93172C" d="M183.416,48.875l-66.187,66.198l64.127,64.145c16.734-17.074,27.065-40.452,27.065-66.251
			C208.422,88.24,198.935,65.736,183.416,48.875"/>
		<path fill="#93172C" d="M110.83,115.073L44.4,48.62c-15.662,16.889-25.25,39.493-25.25,64.346
			c0,25.923,10.427,49.405,27.303,66.499L110.83,115.073z"/>
		<path fill="#93172C" d="M114.032,118.274l-64.323,64.337c16.857,15.525,39.357,25.016,64.077,25.016
			c24.844,0,47.438-9.588,64.322-25.25L114.032,118.274z"/>
		<polygon fill="#FFFFFF" points="74.95,120.287 74.95,135.155 56.656,127.72 		"/>
		<polygon fill="#FFFFFF" points="45.226,120.287 45.226,135.155 63.516,127.72 		"/>
		<path fill="#FFFFFF" d="M75.511,104.005c0.473-1.574,0.727-3.248,0.727-4.982c0-9.259-7.232-16.762-16.154-16.762
			c-8.92,0-16.154,7.503-16.154,16.762c0,1.734,0.253,3.408,0.725,4.982H75.511z"/>
		<rect x="37.588" y="99.625" fill="#FFFFFF" width="45.594" height="4.38"/>
		<path fill="#FFFFFF" d="M62.176,140.566c0,1.155-0.935,2.091-2.092,2.091c-1.156,0-2.088-0.936-2.088-2.091
			c0-1.155,0.932-2.09,2.088-2.09C61.241,138.476,62.176,139.411,62.176,140.566"/>
		<rect x="142.951" y="108.445" fill="#FFFFFF" width="6.577" height="22.261"/>
		<path fill="#FFFFFF" d="M169.094,93.843h4.652v6.491h11.301v-6.411h-10.614c0.856-0.63,1.732-1.607,2.442-2.823
			c1.55-2.631,1.776-5.363,0.503-6.105c-0.221-0.125-0.471-0.193-0.729-0.193c-1.294,0-3.082,1.417-4.362,3.597
			c-0.427,0.733-0.744,1.475-0.97,2.171c-0.224-0.696-0.538-1.438-0.966-2.171c-1.282-2.18-3.068-3.597-4.361-3.597
			c-0.261,0-0.506,0.068-0.732,0.193c-1.26,0.742-1.032,3.474,0.507,6.105c0.72,1.216,1.585,2.193,2.439,2.823H157.59v6.411h11.504
			V93.843z M172.759,91.031c0.201-0.639,0.483-1.27,0.833-1.865c1.145-1.958,2.484-2.801,3.01-2.845
			c0.184,0.404,0.161,1.978-1.031,4.003c-1.149,1.969-2.496,2.811-2.98,2.866l-0.347-0.526L172.759,91.031z M167.067,90.324
			c-1.188-2.025-1.214-3.599-1.022-4.003c0.519,0.044,1.856,0.887,3,2.845c0.352,0.595,0.632,1.215,0.836,1.865l0.506,1.622
			l-0.328,0.526C169.531,93.112,168.204,92.257,167.067,90.324 M174.131,102.394v7.239c0.843,0.43,1.064,1.192,1.064,1.192
			s0.171-0.077,0.171,3.411c0,3.485-0.742,3.609-1.235,3.723v1.884c0,0,5.666-1.831,9.04-6.091c1.226-1.553,1.901-1.17,1.901-1.17
			l-0.025-10.188H174.131z M169.094,102.394H157.59v5.923h11.504V102.394z M184.464,115.615c-0.26-0.1-0.531-0.132-0.811-0.09
			c-2.06,0.374-5.196,8.066-13.321,5.84c0,0-2.387-0.764-3.285-1.314c-0.799-0.441-2.486-1.453-3.87-2.501h8.223
			c0,0,0.335,0.025,0.717-0.066c0.538-0.122,1.171-0.45,1.171-1.326v-3.79c0,0-0.248-1.271-1.171-1.732
			c-0.201-0.102-0.444-0.172-0.717-0.172h-19.092v16.185c0,0,12.896,4.052,17.446,4.052c0,0,11.37,0.504,18.957-8.349
			C188.711,122.353,186.734,116.507,184.464,115.615"/>
	</g>
	<path fill="#FFFFFF" d="M124.747,93.096c0,0.764-4.133,1.384-9.23,1.384c-5.099,0-9.23-0.62-9.23-1.384
		c0-0.765,4.132-1.384,9.23-1.384C120.614,91.712,124.747,92.331,124.747,93.096"/>
	<rect x="114.643" y="84.848" fill="#FFFFFF" width="1.687" height="6.864"/>
	<path fill="#FFFFFF" d="M126.528,68.401c-1.179-1.937-2.508-4.127-2.374-8.49c0.131-4.065,2.437-6.821,3.794-8.105
		c0.695-0.648,1.443-1.846,1.476-2.94c0.114-3.209-0.833-5.48-1.663-6.826c-0.599-1-1.935-1.577-2.912-1.69
		c-1.167-0.143-3.324-0.502-4.663-1.363c-0.965-0.608-1.242-1.847-1.299-2.813c0.313-0.387,0.508-0.831,0.508-1.32
		c0-1.513-1.713-2.698-3.884-2.698c-2.177,0-3.881,1.185-3.881,2.698c0,0.5,0.201,0.953,0.523,1.351
		c-0.06,0.953-0.335,2.174-1.3,2.782c-1.34,0.861-3.498,1.22-4.658,1.363c-1.009,0.117-2.343,0.739-2.922,1.69
		c-0.818,1.346-1.774,3.617-1.667,6.821c0.04,1.099,0.795,2.297,1.479,2.945c1.364,1.284,3.669,4.04,3.795,8.105
		c0.141,4.363-1.19,6.553-2.371,8.49c-0.432,0.71-0.842,1.383-1.136,2.114c-0.967,2.338-2,8.736-1.486,13.831
		c0.129,1.252,1.277,2.269,2.562,2.269h6.806l5.941,0.01h9.394c1.284,0,2.437-1.021,2.563-2.272
		c0.513-5.097-0.52-11.495-1.481-13.838C127.372,69.784,126.962,69.111,126.528,68.401"/>
	<path fill="#72122C" d="M113.824,76.235c-0.016-0.514-0.006-1.017,0.006-1.547c0.038-1.628,0.072-3.302-0.727-5.206
		c-0.656-1.552-0.203-2.888,0.271-4.307c0.413-1.241,0.888-2.64,0.727-4.476c-0.074-0.86-0.112-1.823-0.154-2.848
		c-0.153-3.737-0.345-8.392-2.406-10.555c-2.952-3.105-1.465-7.71-1.393-7.929l1.134-0.791c-0.015,0.047-1.513,5.349,1.014,8.004
		c2.329,2.448,2.529,7.313,2.688,11.23c0.043,1.01,0.087,1.965,0.154,2.797c0.176,2.052-0.33,3.564-0.779,4.9
		c-0.443,1.329-0.799,2.386-0.295,3.571c0.885,2.109,0.843,3.977,0.809,5.632c-0.011,0.518-0.025,1.006-0.006,1.491L113.824,76.235z
		"/>
	<path fill="#72122C" d="M120.604,81.685l-1.031-0.278c0.985-3.668,1.909-7.9,0.419-11.635c-1.636-4.088-2.621-15.291-0.676-20.348
		c1.854-4.806,1.311-10.39,1.306-10.441l1.082,0.726c0.031,0.222,0.561,5.045-1.39,10.099c-1.806,4.699-0.9,15.631,0.671,19.569
		C122.599,73.414,121.634,77.85,120.604,81.685"/>
	<g>
		<path fill="#FFFFFF" d="M133.728,153.797c-0.526-0.154-1.226,0.047-1.529,0.51c-2.469,3.785-9.431,6.236-17.961,6.236
			c-8.063,0-14.45-2.307-15.421-5.377c-0.032-0.049-0.062-0.1-0.088-0.15c-0.002-0.004-0.003-0.006-0.004-0.01
			c-0.026-0.051-0.049-0.104-0.069-0.158c-0.111-0.182-0.187-0.387-0.215-0.605c-0.013-0.033-0.024-0.064-0.031-0.1
			c-0.021-0.01-0.04-0.027-0.046-0.057c-0.012-0.057-0.015-0.111-0.015-0.166c0-0.016,0.003-0.025,0.007-0.037
			c0.021-1.396,0.482-2.516,1.514-3.426c4.15-3.656,14.621-2.479,14.762-2.465c5.934,0.523,9.204,2.487,9.204,3.641
			c0,1.305-3.866,3.223-9.216,3.248c-1.287-0.025-2.445-0.17-3.471-0.381c0.603,0.029,1.185,0.051,1.706,0.051
			c3.372,0,9.083-0.582,9.083-2.756c0-2.17-5.711-2.75-9.084-2.75c-2.966,0-7.521,0.451-8.569,2.039
			c-0.015,0.047-0.027,0.096-0.035,0.145c0.001,0.156,0.023,0.316,0.043,0.477c0.019,0.086,0.039,0.172,0.054,0.26
			c0.021,0.014,0.036,0.027,0.036,0.043v5.727c1.872,0.898,5.776,1.5,9.894,1.5c4.746,0,9.193-0.811,12.095-2.172v-5.43
			c0-3.767-6.221-5.645-11.479-6.11c-0.477-0.053-11.714-1.313-16.7,3.069c-1.573,1.386-2.393,3.164-2.416,5.291
			c0,0.07,0.007,0.141,0.019,0.205c-0.008,0.053-0.02,0.104-0.02,0.158v18.84c0,0.387,0.181,0.756,0.493,0.988
			c0.825,0.627,1.735,1.197,2.582,1.732l0.762,0.387v-6.918h2.9v8.477c0.936,0.297,0.936,0.568,1.872,0.818v-5.459h2.901v6.424
			c0.936,0.127,0.894,0.25,1.355,0.357l0.516,0.09v-10.707h2.9v11.172c0.937,0.066,0.937,0.111,1.872,0.139v-7.475h2.899v7.451
			c0.937-0.035,0.937-0.094,1.873-0.168v-11.119h2.899v10.633l0.771-0.146c0.386-0.09,1.1-0.195,1.1-0.297v-6.354h2.901v5.445
			c0.935-0.248,0.935-0.504,1.87-0.764v-8.518h2.9v7.086l0.851-0.494c1.178-0.693,2.085-1.205,2.175-1.275
			c0.311-0.234,0.718-0.602,0.718-0.992v-18.615C134.885,154.438,134.252,153.954,133.728,153.797z M105.015,151.811
			c0.167-0.529,3.015-1.525,7.836-1.525c4.826,0,7.671,0.996,7.845,1.494c-0.174,0.535-3.019,1.525-7.845,1.525
			C108.03,153.305,105.183,152.315,105.015,151.811z"/>
	</g>
	<g display="none">
		<defs>
			<circle id="SVGID_1_" cx="121.956" cy="119.824" r="94.427"/>
		</defs>
		<clipPath id="SVGID_2_" display="inline">
			<use xlink:href="#SVGID_1_"  overflow="visible"/>
		</clipPath>
		
			<rect x="4.516" y="171.743" transform="matrix(0.7051 -0.7091 0.7091 0.7051 -85.9339 154.6046)" display="inline" clip-path="url(#SVGID_2_)" width="276.825" height="17.772"/>
	</g>
</g>
<g id="Calque_2">
</g>
</svg>
