<?xml version="1.0" encoding="utf-8"?>
<!-- Generator: Adobe Illustrator 16.0.0, SVG Export Plug-In . SVG Version: 6.00 Build 0)  -->
<!DOCTYPE svg PUBLIC "-//W3C//DTD SVG 1.1//EN" "http://www.w3.org/Graphics/SVG/1.1/DTD/svg11.dtd">
<svg version="1.1" id="Calque_1" xmlns="http://www.w3.org/2000/svg" xmlns:xlink="http://www.w3.org/1999/xlink" x="0px" y="0px"
	 width="39.11px" height="35.27px" viewBox="0 0 39.11 35.27" enable-background="new 0 0 39.11 35.27" xml:space="preserve">
<g>
	<defs>
		<rect id="SVGID_1_" width="39.11" height="35.27"/>
	</defs>
	<clipPath id="SVGID_2_">
		<use xlink:href="#SVGID_1_"  overflow="visible"/>
	</clipPath>
	<path clip-path="url(#SVGID_2_)" fill="#FFFFFF" d="M37.953,8.48c-0.526-0.154-1.226,0.048-1.529,0.511
		c-2.469,3.785-9.431,6.235-17.961,6.235c-8.062,0-14.45-2.305-15.421-5.377C3.01,9.802,2.979,9.75,2.954,9.7
		C2.952,9.696,2.951,9.694,2.95,9.689C2.924,9.639,2.901,9.586,2.881,9.532C2.769,9.35,2.694,9.145,2.666,8.928
		c-0.013-0.034-0.024-0.066-0.031-0.1C2.614,8.816,2.595,8.801,2.589,8.77C2.576,8.715,2.574,8.659,2.574,8.604
		c0-0.014,0.002-0.025,0.007-0.037c0.021-1.395,0.482-2.514,1.514-3.426c4.15-3.654,14.62-2.478,14.762-2.463
		c5.933,0.522,9.204,2.486,9.204,3.64c0,1.305-3.866,3.223-9.216,3.248c-1.287-0.025-2.445-0.171-3.471-0.382
		c0.603,0.03,1.185,0.051,1.706,0.051c3.373,0,9.083-0.581,9.083-2.756c0-2.169-5.711-2.748-9.084-2.748
		c-2.966,0-7.52,0.45-8.568,2.037C8.495,5.814,8.484,5.865,8.476,5.914C8.477,6.07,8.499,6.229,8.519,6.389
		c0.018,0.087,0.038,0.173,0.054,0.26c0.021,0.014,0.035,0.029,0.035,0.043v5.728c1.872,0.898,5.776,1.5,9.894,1.5
		c4.747,0,9.194-0.811,12.095-2.173V6.317c0-3.767-6.221-5.645-11.479-6.109C18.641,0.155,7.404-1.105,2.417,3.278
		c-1.573,1.385-2.393,3.162-2.415,5.29c0,0.07,0.007,0.14,0.018,0.204C0.012,8.826,0,8.876,0,8.93v18.841
		c0,0.386,0.181,0.756,0.493,0.988c0.825,0.626,1.735,1.196,2.581,1.732l0.763,0.386v-6.918h2.9v8.477
		c0.936,0.297,0.936,0.569,1.871,0.819v-5.459h2.901v6.423c0.936,0.127,0.894,0.25,1.356,0.357l0.515,0.091V23.959h2.901v11.172
		c0.936,0.066,0.936,0.111,1.872,0.139v-7.474h2.899v7.45c0.937-0.035,0.937-0.094,1.873-0.167v-11.12h2.898v10.634l0.772-0.147
		c0.386-0.09,1.1-0.195,1.1-0.297v-6.353h2.901v5.444c0.935-0.247,0.935-0.503,1.87-0.763v-8.519h2.9v7.086l0.851-0.494
		c1.178-0.693,2.085-1.206,2.175-1.274c0.311-0.235,0.718-0.603,0.718-0.992V9.669C39.11,9.123,38.478,8.638,37.953,8.48
		 M9.241,6.495c0.167-0.529,3.015-1.525,7.836-1.525c4.827,0,7.671,0.996,7.845,1.495c-0.174,0.534-3.019,1.525-7.845,1.525
		C12.256,7.99,9.408,6.999,9.241,6.495"/>
</g>
</svg>
