<?xml version="1.0" encoding="utf-8"?>
<!-- Generator: Adobe Illustrator 16.0.0, SVG Export Plug-In . SVG Version: 6.00 Build 0)  -->
<!DOCTYPE svg PUBLIC "-//W3C//DTD SVG 1.1//EN" "http://www.w3.org/Graphics/SVG/1.1/DTD/svg11.dtd">
<svg version="1.1" id="Calque_1" xmlns="http://www.w3.org/2000/svg" xmlns:xlink="http://www.w3.org/1999/xlink" x="0px" y="0px"
	 width="44.282px" height="44.25px" viewBox="0 0 44.282 44.25" enable-background="new 0 0 44.282 44.25" xml:space="preserve">
<g display="none">
	<polygon display="inline" fill="#930028" points="7.713,29.751 7.713,43.78 21.737,38.079 35.764,43.78 35.764,29.751 
		21.737,35.449 	"/>
	<path display="inline" fill="#930028" d="M36.958,16.857c0.009-0.189,0.023-0.378,0.023-0.569c0-8.736-6.826-15.818-15.249-15.818
		c-8.416,0-15.244,7.082-15.244,15.818c0,0.191,0.018,0.38,0.023,0.569H0.506v4.132h43.028v-4.132H36.958z"/>
</g>
<g display="none">
	<path display="inline" fill="#930028" d="M27.271,2.746h-0.713l-0.113,0.493c-0.499,2.146-2.316,3.649-4.427,3.651
		c-2.104-0.002-3.927-1.505-4.427-3.651l-0.112-0.493h-0.805l-0.095,0.03C16.01,2.952,2.577,7.097,1.96,7.298L1.943,7.301
		L1.926,7.31C1.42,7.507,0.932,8.024,0.654,8.677c-0.306,0.718-0.317,1.48-0.038,2.149l-0.018-0.048
		c0.627,1.94,1.418,4.917,1.714,6.036l0.127,0.472c0.225,0.805,1.183,1.354,2.169,1.252c0,0,3.349-0.342,4.837-0.498v20.898
		c0,1.24,0.875,2.564,2.508,2.564h20.133c1.629,0,2.509-1.327,2.509-2.564V18.04c1.071,0.11,4.831,0.498,4.831,0.498
		c0.991,0.103,1.947-0.449,2.173-1.252l0.129-0.472c0.295-1.122,1.089-4.096,1.717-6.036l-0.02,0.048
		c0.277-0.669,0.265-1.432-0.039-2.149c-0.275-0.652-0.767-1.17-1.271-1.367l-0.02-0.009L42.08,7.298
		c-0.619-0.201-14.05-4.346-14.622-4.521l-0.093-0.03H27.271"/>
</g>
<g>
	<path fill="#930028" d="M32.718,0.034H11.315v10.198L9.54,40.816c-0.167,1.912,0.801,3.398,1.785,3.398h5.351
		c0.983,0,1.508-1.58,1.784-3.398l2.674-30.588h1.783l2.676,30.588c0.274,1.818,0.795,3.398,1.781,3.398h5.35
		c0.984,0,1.918-1.435,1.78-3.398l-1.786-30.585V0.034z"/>
</g>
</svg>
