<?xml version="1.0" encoding="utf-8"?>
<!-- Generator: Adobe Illustrator 16.0.0, SVG Export Plug-In . SVG Version: 6.00 Build 0)  -->
<!DOCTYPE svg PUBLIC "-//W3C//DTD SVG 1.1//EN" "http://www.w3.org/Graphics/SVG/1.1/DTD/svg11.dtd">
<svg version="1.1" id="Calque_1" xmlns="http://www.w3.org/2000/svg" xmlns:xlink="http://www.w3.org/1999/xlink" x="0px" y="0px"
	 width="28px" height="28px" viewBox="1.35 1 28 28" enable-background="new 1.35 1 28 28" xml:space="preserve">
<g>
	<path fill="#930028" d="M18.753,2.642h-0.462l-0.073,0.32c-0.323,1.391-1.502,2.365-2.869,2.365c-1.364,0-2.545-0.975-2.869-2.365
		l-0.072-0.32h-0.522l-0.06,0.02c-0.369,0.114-9.075,2.8-9.474,2.931L2.34,5.593L2.33,5.599C2.001,5.727,1.686,6.062,1.505,6.485
		C1.307,6.95,1.299,7.444,1.481,7.878L1.469,7.847c0.407,1.257,0.918,3.187,1.11,3.911l0.083,0.306
		c0.146,0.521,0.766,0.878,1.405,0.811c0,0,2.171-0.22,3.135-0.321v13.542c0,0.804,0.568,1.661,1.625,1.661h13.046
		c1.055,0,1.625-0.859,1.625-1.661V12.553c0.695,0.071,3.132,0.321,3.132,0.321c0.643,0.067,1.262-0.29,1.408-0.811l0.083-0.306
		c0.191-0.726,0.706-2.654,1.112-3.911l-0.013,0.031c0.18-0.434,0.172-0.928-0.025-1.393c-0.178-0.423-0.497-0.758-0.822-0.886
		L28.36,5.593L28.35,5.592c-0.401-0.131-9.104-2.816-9.475-2.931l-0.061-0.02H18.753"/>
</g>
</svg>
