<?xml version="1.0" encoding="utf-8"?>
<!-- Generator: Adobe Illustrator 16.0.0, SVG Export Plug-In . SVG Version: 6.00 Build 0)  -->
<!DOCTYPE svg PUBLIC "-//W3C//DTD SVG 1.1//EN" "http://www.w3.org/Graphics/SVG/1.1/DTD/svg11.dtd">
<svg version="1.1" id="Calque_1" xmlns="http://www.w3.org/2000/svg" xmlns:xlink="http://www.w3.org/1999/xlink" x="0px" y="0px"
	 width="28px" height="28px" viewBox="0 0 28 28" enable-background="new 0 0 28 28" xml:space="preserve">
<rect x="12.556" y="18.2" fill="#930028" width="2.8" height="2.8"/>
<g>
	<path fill="#930028" d="M14,2.8c6.16,0,11.2,5.04,11.2,11.2c0,6.16-5.04,11.2-11.2,11.2S2.801,20.16,2.801,14
		C2.801,7.84,7.84,2.8,14,2.8 M14,0C6.3,0,0,6.3,0,14c0,7.699,6.3,14,14,14c7.701,0,14-6.301,14-14C28,6.3,21.701,0,14,0"/>
	<path fill="#930028" d="M12.556,16.801c0-1.96,0.84-2.661,1.54-3.361c0.42-0.28,0.701-0.7,0.84-1.12
		c0.279-0.42,0.279-0.84,0.279-1.4s-0.14-0.98-0.419-1.4c-0.28-0.28-0.561-0.56-1.121-0.56c-0.42,0-1.399,0.14-1.399,2.1h-2.52V10.5
		c0-1.26,0.42-2.1,1.12-2.8C11.716,7.281,12.696,7,13.816,7c1.399,0,2.38,0.281,3.08,1.121c0.699,0.839,1.12,1.68,1.12,2.8
		c0,3.36-2.801,3.5-2.801,5.88H12.556z"/>
</g>
</svg>
